HIERARCHY
ROOT Bip001_Pelvis
{
  OFFSET 34.4345 95.6767 -26.8758
  CHANNELS 6 Xposition Yposition Zposition Zrotation Xrotation Yrotation
  JOINT Bip001_Spine
  {
    OFFSET 1.4188e-005 10.2191 -0.0116013
    CHANNELS 3 Zrotation Xrotation Yrotation
    JOINT Bip001_L_Thigh
    {
      OFFSET 11.0458 -10.2192 0.0116197
      CHANNELS 3 Zrotation Xrotation Yrotation
      JOINT Bip001_L_Calf
      {
        OFFSET -0.707118 -44.0221 0.360014
        CHANNELS 3 Zrotation Xrotation Yrotation
        JOINT Bip001_L_Foot
        {
          OFFSET -0.651902 -40.5938 -3.56146
          CHANNELS 3 Zrotation Xrotation Yrotation
          JOINT Bip001_L_Toe0
          {
            OFFSET 0.0530839 -10.2181 13.1504
            CHANNELS 3 Zrotation Xrotation Yrotation
            End Site
            {
              OFFSET -1.02532e-005 0 7.55606
            }
          }
        }
      }
    }
    JOINT Bip001_R_Thigh
    {
      OFFSET -11.0458 -10.2191 0.0115893
      CHANNELS 3 Zrotation Xrotation Yrotation
      JOINT Bip001_R_Calf
      {
        OFFSET 0.706994 -44.0221 0.35984
        CHANNELS 3 Zrotation Xrotation Yrotation
        JOINT Bip001_R_Foot
        {
          OFFSET 0.651786 -40.5938 -3.5613
          CHANNELS 3 Zrotation Xrotation Yrotation
          JOINT Bip001_R_Toe0
          {
            OFFSET -0.0531479 -10.2181 13.1504
            CHANNELS 3 Zrotation Xrotation Yrotation
            End Site
            {
              OFFSET -1.02894e-005 0 7.55606
            }
          }
        }
      }
    }
    JOINT Bip001_Spine1
    {
      OFFSET 1.87041e-005 14.5736 1.08638
      CHANNELS 3 Zrotation Xrotation Yrotation
      JOINT Bip001_Spine2
      {
        OFFSET 2.24614e-005 14.5058 -1.69078
        CHANNELS 3 Zrotation Xrotation Yrotation
        JOINT Bip001_Neck
        {
          OFFSET 2.20278e-005 15.3945 -0.489414
          CHANNELS 3 Zrotation Xrotation Yrotation
          JOINT Bip001_L_Clavicle
          {
            OFFSET 6.06036 -0.000579998 0.00836775
            CHANNELS 3 Zrotation Xrotation Yrotation
            JOINT Bip001_L_UpperArm
            {
              OFFSET 11.5509 -0.0600302 0.00193952
              CHANNELS 3 Zrotation Xrotation Yrotation
              JOINT Bip001_L_Forearm
              {
                OFFSET 25.9523 0.0806089 -2.15551
                CHANNELS 3 Zrotation Xrotation Yrotation
                JOINT Bip001_L_Hand
                {
                  OFFSET 32.2475 0.153767 1.63968
                  CHANNELS 3 Zrotation Xrotation Yrotation
                  JOINT Bip001_L_Finger0
                  {
                    OFFSET 6.04639 -2.20976 5.90322
                    CHANNELS 3 Zrotation Xrotation Yrotation
                    End Site
                    {
                      OFFSET 4.22375 -1.43895 0.606485
                    }
                  }
                  JOINT Bip001_L_Finger1
                  {
                    OFFSET 11.0826 -0.704819 -0.198153
                    CHANNELS 3 Zrotation Xrotation Yrotation
                    End Site
                    {
                      OFFSET 6.20027 -0.397518 -0.0787166
                    }
                  }
                }
              }
            }
          }
          JOINT Bip001_R_Clavicle
          {
            OFFSET -6.06037 -0.000563197 0.00835105
            CHANNELS 3 Zrotation Xrotation Yrotation
            JOINT Bip001_R_UpperArm
            {
              OFFSET -11.5509 -0.0599978 0.00190698
              CHANNELS 3 Zrotation Xrotation Yrotation
              JOINT Bip001_R_Forearm
              {
                OFFSET -25.9523 0.0806822 -2.15589
                CHANNELS 3 Zrotation Xrotation Yrotation
                JOINT Bip001_R_Hand
                {
                  OFFSET -32.2475 0.153859 1.63989
                  CHANNELS 3 Zrotation Xrotation Yrotation
                  JOINT Bip001_R_Finger0
                  {
                    OFFSET -6.04641 -2.20976 5.90317
                    CHANNELS 3 Zrotation Xrotation Yrotation
                    End Site
                    {
                      OFFSET -4.22376 -1.43895 0.60647
                    }
                  }
                  JOINT Bip001_R_Finger1
                  {
                    OFFSET -11.0826 -0.704794 -0.198182
                    CHANNELS 3 Zrotation Xrotation Yrotation
                    End Site
                    {
                      OFFSET -6.20028 -0.397504 -0.0787333
                    }
                  }
                }
              }
            }
          }
          JOINT Bip001_Head
          {
            OFFSET 1.09673e-005 11.2744 2.05948
            CHANNELS 3 Zrotation Xrotation Yrotation
            End Site
            {
              OFFSET 2.89576e-005 20.8808 -2.77728e-005
            }
          }
        }
      }
    }
  }
}
MOTION
Frames:	10
Frame Time:	0.04
28.8837 94.6879 -32.0885 -4.17621 -5.56264 0.0362942 -0.28474 2.86902 0.435545 15.8047 -4.81445 12.5424 -1.59742 20.4187 -3.9666 -0.721768 -9.07363 0.0423047 0.984224 -4.86182 -0.385719 3.28627 -3.13536 2.20844 0.370153 16.1847 1.7948 -10.6727 -7.61509 -8.39162 2.73146 -9.58746 3.59182 -0.593983 5.73569 0.895556 -0.592898 5.73568 0.891406 4.76802 -11.6671 -5.81696 -27.371 11.6498 0.10482 -46.6537 28.5021 5.05573 12.82 -6.54799 -31.0807 11.0324 0.903171 -5.05741 3.18055e-015 0 -3.18055e-015 3.18055e-015 0 -3.18055e-015 2.81346 16.2269 26.7015 47.5933 -37.2433 56.3338 -35.754 6.72974 37.2356 -29.3689 -25.2859 9.86396 7.94503e-031 -9.54166e-015 4.77083e-015 4.41391e-031 -6.36111e-015 3.97569e-015 -6.13355 -0.112297 -3.24717 
28.195 95.2305 -32.1875 -4.90326 -4.39978 1.88442 -0.437911 2.64998 0.417314 16.9841 -4.96358 11.9849 -1.77549 17.1195 -4.98013 -1.44398 -7.31607 0.0437656 0.830252 -4.81782 -0.0316918 4.47722 -1.43126 1.37946 0.611801 10.8355 0.876799 -9.53931 -5.76771 -7.80298 2.56086 -8.55925 2.64 -0.902198 5.29682 0.852739 -0.899553 5.29682 0.854558 6.34809 -10.3845 -6.75681 -28.4611 9.81294 0.512169 -46.9293 27.7422 6.84175 13.2868 -5.60802 -30.563 10.8227 0.957351 -4.81167 -3.18055e-015 3.18055e-015 -9.54166e-015 -3.18055e-015 3.18056e-015 -6.36111e-015 1.61821 14.9543 27.8005 53.3512 -45.1103 64.3836 -37.8793 10.9722 33.2773 -29.527 -22.129 4.63752 1.59028e-015 -4.77083e-015 -7.55382e-015 1.59028e-015 -3.18056e-015 -1.59028e-014 -6.4842 -0.688939 -3.71755 
28.0714 95.5944 -32.2379 -5.01629 -3.533 2.8013 -0.54949 2.4394 0.244574 16.8375 -4.42608 12.6641 -1.30381 13.9068 -6.44777 -1.78447 -5.68069 0.0610091 0.687068 -4.92569 0.0946719 4.53035 -0.00299382 -0.152269 0.733428 6.6125 0.399512 -8.40517 -4.67767 -6.50032 2.27829 -7.78177 2.46523 -1.1099 4.87631 0.501794 -1.11096 4.87633 0.507932 8.28422 -9.04991 -7.04041 -29.1109 8.19269 0.322553 -49.3943 26.2487 9.28481 13.3991 -4.49512 -29.5816 10.9072 1.14569 -4.49051 -3.18055e-015 -6.36111e-015 6.36111e-015 -4.77083e-015 -3.18056e-015 3.18055e-015 2.95955 14.086 25.4687 23.875 -44.535 47.9644 -27.8408 5.64453 25.4939 -26.6393 -23.2882 6.97605 5.51738e-032 -1.59028e-015 1.98785e-015 -1.10348e-031 -3.18056e-015 -1.98785e-015 -7.58252 -1.14719 -3.33084 
28.0689 95.7609 -32.3553 -5.22314 -2.94054 1.86833 -0.349362 2.19221 0.316674 16.6779 -3.76408 14.5552 -1.05369 12.4574 -7.35 -2.35145 -5.3505 0.0753165 0.585604 -4.51484 0.153326 4.40809 0.826934 -0.12037 0.590291 3.96261 -0.0120854 -7.43956 -3.91168 -5.17789 2.0718 -7.16765 2.29625 -0.675406 4.38242 0.64531 -0.694553 4.38245 0.644842 7.96769 -9.17545 -6.88572 -29.6183 8.293 0.500734 -51.341 26.9813 12.2316 13.4716 -4.02504 -28.3576 9.41188 1.22129 -4.65005 1.27222e-014 6.36111e-015 3.18055e-015 7.95139e-015 6.36111e-015 3.18055e-015 -0.831468 12.2003 22.1976 8.55718 -32.1736 37.6082 -23.2561 -4.08126 19.2789 -22.7635 -26.2097 13.992 -2.64834e-031 -4.77083e-015 -3.18055e-015 -3.18055e-015 -3.18056e-015 -1.59028e-015 -8.05109 -0.0346414 -3.07365 
27.9497 95.7866 -32.6269 -5.4342 -1.93298 0.869223 -0.265402 2.03066 0.103391 16.9083 -4.3279 13.948 -1.44878 12.4234 -5.37047 -2.37776 -5.20725 0.0795927 0.622762 -4.52145 0.117953 4.60836 0.449226 1.37801 0.251658 2.62946 -0.630401 -6.67543 -3.5149 -4.5876 1.90281 -6.61236 2.09245 -0.541456 4.06086 0.215973 -0.538244 4.06081 0.216447 5.29646 -10.2775 -5.55366 -27.8515 9.70921 1.99515 -51.7827 28.8024 13.1181 13.8478 -3.3238 -26.3116 7.79266 1.08387 -4.65484 4.77083e-015 -3.18055e-015 6.36111e-015 6.36111e-015 -3.18056e-015 3.18055e-015 1.00998 13.7977 23.8307 -0.348449 -26.6129 27.2767 -23.9117 -8.20926 21.506 -25.7197 -24.3957 10.8307 3.18055e-015 -3.18055e-015 -2.38542e-015 6.36111e-015 -3.18056e-015 -1.19271e-015 -5.55456 1.69129 -2.89816 
28.0916 95.829 -32.9274 -5.40304 -1.11406 0.182685 -0.360442 2.01838 0.0302511 16.6556 -5.02735 13.8158 -1.28338 12.2338 -4.62946 -1.37985 -4.35456 0.0817423 0.934951 -5.21649 -0.104485 4.43396 -0.208983 1.49786 0.328797 1.90829 -0.469187 -6.18595 -3.25019 -4.02015 1.80673 -6.32159 2.01358 -0.721927 4.03655 0.0711663 -0.722351 4.03659 0.0721726 4.95157 -11.4078 -5.29832 -27.3386 10.7442 2.80112 -51.8595 30.2749 12.6105 13.2192 -4.20572 -23.4351 7.06343 1.24904 -3.48338 1.59028e-015 3.18055e-015 -3.18055e-015 1.59028e-015 6.36111e-015 -1.59028e-015 2.38251 15.1804 22.7792 0.34317 -28.2657 24.8512 -27.9585 -6.52734 25.6354 -21.85 -25.3129 10.7091 -6.62086e-032 -3.18055e-015 -1.19271e-015 -1.93108e-032 -7.95139e-016 -1.39149e-015 -4.58009 2.63938 -2.93154 
28.4111 95.8256 -33.0555 -5.10266 -0.96323 -0.883145 -0.419157 1.94987 0.131837 15.8128 -4.75211 14.7802 -0.628649 11.8713 -5.09196 -0.0223041 -3.4537 0.0540989 1.37852 -6.10307 -0.353597 3.90631 -1.02062 0.457618 0.281803 3.14326 -0.112871 -5.85819 -3.8788 -2.53266 1.80419 -6.32114 2.02653 -0.844532 3.89873 0.277439 -0.843756 3.89872 0.277874 6.19908 -9.98788 -5.66095 -28.1654 9.31522 1.88803 -52.4468 29.4013 12.8583 12.384 -4.46561 -21.5196 6.58525 1.65936 -2.23509 -9.54166e-015 -6.36111e-015 3.18055e-015 -7.95139e-015 -6.36111e-015 3.18055e-015 3.97968 14.2747 21.9462 1.75734 -31.2802 23.5465 -31.8732 -4.30142 31.6404 -11.9547 -25.8392 13.5257 9.54166e-015 7.95139e-016 -0 1.27222e-014 0 -3.97569e-016 -5.60511 1.80753 -2.78955 
28.7767 95.7928 -33.0478 -4.56631 -1.32294 -1.84045 -0.461086 2.02478 0.0781315 15.0505 -3.93652 15.1253 -0.54645 11.6324 -4.21348 -1.50062 -4.59021 0.0795859 0.881466 -5.18454 0.0628782 3.0876 -1.60825 0.231152 0.304404 4.83923 -0.0216181 -5.75433 -4.7469 -1.51371 1.86827 -6.51166 2.07027 -0.935926 4.04893 0.17177 -0.930985 4.04893 0.172647 6.46305 -9.49012 -5.45946 -28.3823 8.88369 1.66707 -52.7468 28.4428 12.2981 11.6248 -5.14283 -19.8887 6.6135 1.60782 -1.6455 -3.18055e-015 -3.18055e-015 1.59028e-015 -1.59028e-015 -3.18056e-015 -0 6.5681 14.5057 21.409 7.69768 -40.0546 22.1184 -38.9375 4.82687 45.9752 -8.73118 -26.3505 12.1654 6.36111e-015 1.19271e-015 7.95139e-016 -3.18055e-015 8.94531e-016 7.95139e-016 -5.84469 1.30174 -2.42292 
29.2234 95.7871 -33.0276 -3.76473 -1.66864 -2.72118 -0.487955 2.17391 -0.254109 13.7341 -3.1453 15.8251 -0.221755 11.0836 -3.60222 -1.90338 -4.90312 0.0751163 0.800844 -4.98003 0.190758 1.93477 -2.21825 0.980704 0.429192 6.35591 0.186075 -5.8027 -5.4455 -1.26057 1.95723 -6.78931 2.15435 -0.962144 4.3494 -0.489749 -0.964638 4.34958 -0.490176 4.88083 -9.62953 -4.10895 -27.4547 9.29833 2.36939 -51.9302 28.643 10.4589 10.8669 -5.45484 -18.5591 6.41268 1.46986 -1.32753 -1.59028e-015 -1.27222e-014 1.59028e-015 2.64834e-031 -9.54167e-015 1.59028e-015 10.1844 15.2677 20.8867 15.0825 -47.5166 19.823 -48.8718 10.1102 62.5437 -12.1141 -26.0583 8.40334 -3.18055e-015 -7.95139e-016 1.98785e-015 -6.36111e-015 0 1.98785e-015 -4.10455 1.41915 -1.89864 
29.6651 95.7882 -33.0239 -3.32481 -1.5977 -3.25893 -0.415831 2.18203 -0.507385 12.792 -3.01442 15.8461 -0.0928658 10.9444 -2.71453 -1.58798 -4.76666 0.0674908 1.0324 -5.1234 -0.0430905 1.11872 -2.73976 1.21342 0.456137 7.10094 0.432319 -5.78262 -5.72991 -0.963153 2.02966 -7.01945 2.23052 -0.813212 4.36727 -0.999984 -0.813209 4.36736 -0.999981 4.50315 -9.77174 -3.16037 -27.635 9.56285 2.72068 -51.7049 29.195 9.33957 10.9524 -5.3243 -18.242 5.80792 1.62255 -1.08443 1.59028e-015 6.36111e-015 -0 -3.18055e-015 6.36111e-015 -0 13.9938 16.0639 19.767 19.027 -52.6921 14.5337 -57.9655 11.1949 78.0292 -16.643 -26.0674 4.41119 6.36111e-015 1.59028e-015 -1.59028e-015 6.36111e-015 2.38542e-015 -7.95139e-016 -3.59659 1.57182 -1.21933 
